<?xml version="1.0" encoding="UTF-8" standalone="no"?>
<!-- Generator: Adobe Illustrator 18.0.0, SVG Export Plug-In . SVG Version: 6.00 Build 0)  -->

<svg
   version="1.1"
   id="Capa_1"
   x="0px"
   y="0px"
   viewBox="0 0 166.5 166.5"
   xml:space="preserve"
   sodipodi:docname="count1.svg"
   width="166.5"
   height="166.5"
   inkscape:version="1.1 (c4e8f9e, 2021-05-24)"
   xmlns:inkscape="http://www.inkscape.org/namespaces/inkscape"
   xmlns:sodipodi="http://sodipodi.sourceforge.net/DTD/sodipodi-0.dtd"
   xmlns="http://www.w3.org/2000/svg"
   xmlns:svg="http://www.w3.org/2000/svg"><defs
   id="defs880" /><sodipodi:namedview
   id="namedview878"
   pagecolor="#505050"
   bordercolor="#eeeeee"
   borderopacity="1"
   inkscape:pageshadow="0"
   inkscape:pageopacity="0"
   inkscape:pagecheckerboard="0"
   showgrid="false"
   inkscape:zoom="2.0020845"
   inkscape:cx="39.458874"
   inkscape:cy="136.10814"
   inkscape:window-width="1323"
   inkscape:window-height="1003"
   inkscape:window-x="0"
   inkscape:window-y="25"
   inkscape:window-maximized="0"
   inkscape:current-layer="Capa_1" />
<g
   id="g845"
   transform="translate(-0.251,-161.968)">
	<g
   id="XMLID_27_">
		<g
   id="g840">


        
                        <path
   style="fill:#4d4d4d"
   d="m 166.751,192.898 v 104.64 c 0,17.05 -13.88,30.93 -30.93,30.93 H 31.181 c -17.06,0 -30.93,-13.88 -30.93,-30.93 v -104.64 c 0,-17.05 13.87,-30.93 30.93,-30.93 h 104.64 c 17.05,0 30.93,13.88 30.93,30.93 z m -15,104.64 v -104.64 c 0,-8.78 -7.15,-15.93 -15.93,-15.93 H 31.181 c -8.78,0 -15.93,7.15 -15.93,15.93 v 104.64 c 0,8.78 7.15,15.93 15.93,15.93 h 104.64 c 8.78,0 15.93,-7.15 15.93,-15.93 z"
   id="path824" />
			<path
   style="fill:#FFFFFF"
   d="m 151.751,192.898 v 104.64 c 0,8.78 -7.15,15.93 -15.93,15.93 H 31.181 c -8.78,0 -15.93,-7.15 -15.93,-15.93 v -104.64 c 0,-8.78 7.15,-15.93 15.93,-15.93 h 104.64 c 8.78,0 15.93,7.15 15.93,15.93 z m -19.74,54.11 c 0.73,-3.99 -1.12,-8.14 -4.56,-10.28 -3.7,-2.29 -8.6,-1.89 -11.87,0.97 -3.02,2.64 -4.15,6.95 -2.87,10.73 1.35,4.01 5.23,6.79 9.46,6.79 4.77,0 8.98,-3.52 9.84,-8.21 z m -0.03,39.98 c 0.81,-4.04 -1.03,-8.28 -4.53,-10.45 -3.65,-2.25 -8.47,-1.91 -11.75,0.87 -3.15,2.66 -4.31,7.12 -2.94,10.99 1.41,3.93 5.23,6.63 9.41,6.63 4.7,0 8.89,-3.42 9.81,-8.04 z m -0.02,-79.55 c 0.85,-4.05 -0.98,-8.35 -4.51,-10.53 -3.7,-2.28 -8.6,-1.89 -11.87,0.98 -3.05,2.68 -4.19,7.09 -2.81,10.91 1.41,3.91 5.23,6.61 9.4,6.61 4.69,0 8.83,-3.39 9.79,-7.97 z m -77.33,-0.08 c 0.82,-4.04 -1.04,-8.27 -4.53,-10.45 -3.6,-2.24 -8.35,-1.91 -11.62,0.77 -3.18,2.61 -4.45,7.05 -3.12,10.94 1.36,4 5.22,6.79 9.46,6.79 4.72,0 8.87,-3.44 9.81,-8.05 z m 0,39.81 c 0.82,-4.04 -1.04,-8.27 -4.53,-10.44 -3.61,-2.23 -8.34,-1.91 -11.62,0.76 -3.19,2.6 -4.44,7.06 -3.12,10.94 1.37,4.01 5.22,6.79 9.46,6.79 4.72,0 8.87,-3.43 9.81,-8.05 z m 0,39.82 c 0.82,-4.04 -1.04,-8.28 -4.53,-10.45 -3.61,-2.23 -8.34,-1.91 -11.62,0.76 -3.19,2.6 -4.44,7.06 -3.12,10.94 1.36,4.02 5.22,6.79 9.46,6.79 4.72,0 8.87,-3.42 9.81,-8.04 z"
   id="path826" />
                        <path
   style="fill:#4d4d4d"
   d="m 127.451,236.728 c 3.44,2.14 5.29,6.29 4.56,10.28 -0.86,4.69 -5.07,8.21 -9.84,8.21 -4.23,0 -8.11,-2.78 -9.46,-6.79 -1.28,-3.78 -0.15,-8.09 2.87,-10.73 3.27,-2.86 8.17,-3.26 11.87,-0.97 z"
   id="path828" />
                        <path
   style="fill:#4d4d4d"
   d="m 127.451,276.538 c 3.5,2.17 5.34,6.41 4.53,10.45 -0.92,4.62 -5.11,8.04 -9.81,8.04 -4.18,0 -8,-2.7 -9.41,-6.63 -1.37,-3.87 -0.21,-8.33 2.94,-10.99 3.28,-2.78 8.1,-3.12 11.75,-0.87 z"
   id="path830" />
                        <path
   style="fill:#4d4d4d"
   d="m 127.451,196.908 c 3.53,2.18 5.36,6.48 4.51,10.53 -0.96,4.58 -5.1,7.97 -9.79,7.97 -4.17,0 -7.99,-2.7 -9.4,-6.61 -1.38,-3.82 -0.24,-8.23 2.81,-10.91 3.27,-2.87 8.17,-3.26 11.87,-0.98 z"
   id="path832" />
                        <path
   style="fill:#4d4d4d"
   d="m 50.101,196.908 c 3.49,2.18 5.35,6.41 4.53,10.45 -0.94,4.61 -5.09,8.05 -9.81,8.05 -4.24,0 -8.1,-2.79 -9.46,-6.79 -1.33,-3.89 -0.06,-8.33 3.12,-10.94 3.27,-2.68 8.02,-3.01 11.62,-0.77 z"
   id="path834" />
                        <path
   style="fill:#4d4d4d"
   d="m 50.101,236.728 c 3.49,2.17 5.35,6.4 4.53,10.44 -0.94,4.62 -5.09,8.05 -9.81,8.05 -4.24,0 -8.09,-2.78 -9.46,-6.79 -1.32,-3.88 -0.07,-8.34 3.12,-10.94 3.28,-2.67 8.01,-2.99 11.62,-0.76 z"
   id="path836" />
                        <path
   style="fill:#4d4d4d"
   d="m 50.101,276.538 c 3.49,2.17 5.35,6.41 4.53,10.45 -0.94,4.62 -5.09,8.04 -9.81,8.04 -4.24,0 -8.1,-2.77 -9.46,-6.79 -1.32,-3.88 -0.07,-8.34 3.12,-10.94 3.28,-2.67 8.01,-2.989 11.62,-0.76 z"
   id="path838" />
		</g>
		<g
   id="g842">
		</g>
	</g>
</g>
<g
   id="g847"
   transform="translate(-0.251,-161.968)">
</g>
<g
   id="g849"
   transform="translate(-0.251,-161.968)">
</g>
<g
   id="g851"
   transform="translate(-0.251,-161.968)">
</g>
<g
   id="g853"
   transform="translate(-0.251,-161.968)">
</g>
<g
   id="g855"
   transform="translate(-0.251,-161.968)">
</g>
<g
   id="g857"
   transform="translate(-0.251,-161.968)">
</g>
<g
   id="g859"
   transform="translate(-0.251,-161.968)">
</g>
<g
   id="g861"
   transform="translate(-0.251,-161.968)">
</g>
<g
   id="g863"
   transform="translate(-0.251,-161.968)">
</g>
<g
   id="g865"
   transform="translate(-0.251,-161.968)">
</g>
<g
   id="g867"
   transform="translate(-0.251,-161.968)">
</g>
<g
   id="g869"
   transform="translate(-0.251,-161.968)">
</g>
<g
   id="g871"
   transform="translate(-0.251,-161.968)">
</g>
<g
   id="g873"
   transform="translate(-0.251,-161.968)">
</g>
<g
   id="g875"
   transform="translate(-0.251,-161.968)">
</g>
</svg>
