<?xml version="1.0" encoding="UTF-8" standalone="no"?>
<!-- Created with Inkscape (http://www.inkscape.org/) -->

<svg
   width="12.067345mm"
   height="9.9539137mm"
   viewBox="0 0 12.067345 9.9539137"
   version="1.1"
   id="svg3678"
   inkscape:version="1.1 (c4e8f9e, 2021-05-24)"
   sodipodi:docname="ok.svg"
   xmlns:inkscape="http://www.inkscape.org/namespaces/inkscape"
   xmlns:sodipodi="http://sodipodi.sourceforge.net/DTD/sodipodi-0.dtd"
   xmlns="http://www.w3.org/2000/svg"
   xmlns:svg="http://www.w3.org/2000/svg">
  <sodipodi:namedview
     id="namedview3680"
     pagecolor="#505050"
     bordercolor="#eeeeee"
     borderopacity="1"
     inkscape:pageshadow="0"
     inkscape:pageopacity="0"
     inkscape:pagecheckerboard="0"
     inkscape:document-units="mm"
     showgrid="false"
     inkscape:zoom="1.7469907"
     inkscape:cx="18.317212"
     inkscape:cy="106.18259"
     inkscape:window-width="1323"
     inkscape:window-height="1003"
     inkscape:window-x="0"
     inkscape:window-y="25"
     inkscape:window-maximized="0"
     inkscape:current-layer="layer1" />
  <defs
     id="defs3675" />
  <g
     inkscape:label="Calque 1"
     inkscape:groupmode="layer"
     id="layer1"
     transform="translate(-28.281075,-29.534986)">
    <path
       style="fill:#FFFFFF;fill-opacity:1;stroke:#ffffff;stroke-width:1.89424;stroke-miterlimit:4;stroke-dasharray:none;stroke-opacity:1"
       id="path1308"
       d="m 29.64002,36.027094 c 0.07985,0.11618 1.523164,2.22473 1.573411,2.2609 2.309879,1.66235 5.947264,-5.28682 6.77373,-6.66224 0,0 -1.113493,0.49686 -1.113493,0.49686 v 0 c -0.526905,0.86565 -1.053804,1.73131 -1.580709,2.59696 -0.559247,0.77423 -1.167013,1.51506 -1.677744,2.32269 -0.11599,0.18343 0.01087,0.53702 -0.186348,0.62505 -1.090682,0.48682 -1.431436,-0.60713 -1.862529,-1.26231 -0.2374,-0.3608 -0.456579,-0.73347 -0.684866,-1.10021 0,0 -1.241452,0.7223 -1.241452,0.7223 z" />
  </g>
</svg>
