<?xml version="1.0" encoding="UTF-8" standalone="no"?>
<!-- Generator: Adobe Illustrator 19.0.0, SVG Export Plug-In . SVG Version: 6.00 Build 0)  -->

<svg
   version="1.1"
width="16" height="16" fill="#FFFFFF" 
   viewBox="0 0 16 16">
	

		
<path
   d="M 8,0 C 3.589,0 0,3.589 0,8 c 0,4.411 3.589,8 8,8 4.411,0 8,-3.589 8,-8 C 16,3.589 12.411,0 8,0 Z M 8,14 C 4.691,14 2,11.309 2,8 2,4.691 4.691,2 8,2 c 3.309,0 6,2.691 6,6 0,3.309 -2.691,6 -6,6 z"
   id="path824" /><rect
   x="-12"
   y="7"
   width="8"
   height="2"
   id="rect826"
   transform="rotate(-90)" /><rect
   x="-12"
   y="-9"
   width="8"
   height="2"
   id="rect826-8"
   transform="scale(-1)" />

</svg>
