<?xml version="1.0" encoding="UTF-8" standalone="no"?>
<svg
   width="512px"
   height="512px"
   viewBox="0 0 512 512"
   version="1.1"
   id="svg844"
   sodipodi:docname="countPhonems.svg"
   inkscape:version="1.1 (c4e8f9e, 2021-05-24)"
   xmlns:inkscape="http://www.inkscape.org/namespaces/inkscape"
   xmlns:sodipodi="http://sodipodi.sourceforge.net/DTD/sodipodi-0.dtd"
   xmlns="http://www.w3.org/2000/svg"
   xmlns:svg="http://www.w3.org/2000/svg">
  <defs
     id="defs848" />
  <sodipodi:namedview
     id="namedview846"
     pagecolor="#505050"
     bordercolor="#eeeeee"
     borderopacity="1"
     inkscape:pageshadow="0"
     inkscape:pageopacity="0"
     inkscape:pagecheckerboard="0"
     showgrid="false"
     inkscape:zoom="1.4707031"
     inkscape:cx="261.77955"
     inkscape:cy="246.48074"
     inkscape:window-width="1323"
     inkscape:window-height="1003"
     inkscape:window-x="0"
     inkscape:window-y="25"
     inkscape:window-maximized="0"
     inkscape:current-layer="svg844" />
  <path
     fill="#f779f5"
     d="M410.7,286.969c.428-.853.848-1.712,1.252-2.564L456,191.915V169.024l-3.063-4.209c-.579-.794-58.045-79.741-77.516-105.7-21.563-28.752-42.328-41.573-67.329-41.573-19.5,0-39.3,9.269-58.825,27.549A169.483,169.483,0,0,0,236,59.063,169.483,169.483,0,0,0,222.733,45.09c-19.528-18.28-39.32-27.549-58.825-27.549-25,0-45.766,12.821-67.329,41.573-19.471,25.96-76.937,104.907-77.516,105.7L16,169.024v22.891l44.037,92.477q.617,1.3,1.262,2.583a134.918,134.918,0,0,0,50.722,54.836,138.545,138.545,0,0,0,71.9,20.065H288.077a138.545,138.545,0,0,0,71.9-20.065A134.924,134.924,0,0,0,410.7,286.969ZM183.923,329.876c-39.666,0-76.572-22.473-94.02-57.247-.327-.651-.648-1.308-.968-1.982L48,184.685v-5.246c12.2-16.749,57.436-78.8,74.179-101.126,19.015-25.354,31.765-28.772,41.729-28.772,23.113,0,47.41,28.439,54.806,39.374L223.468,96h25.064l4.754-7.085C260.14,78.7,284.92,49.541,308.092,49.541c9.964,0,22.714,3.418,41.729,28.773C366.563,100.637,411.8,162.69,424,179.439v5.246l-40.941,85.976c-.314.66-.635,1.317-.959,1.962-17.451,34.78-54.357,57.253-94.023,57.253Z"
     id="path824" />
  <path
     fill="#f779f5"
     d="M304.429,112.851l-10.073,11.394c-.233.265-24.313,26.43-58.356,26.43-34.158,0-58.166-26.219-58.356-26.43l-10.073-11.394L83.93,179.539l44.393,89.547,11.457-1.637a680.122,680.122,0,0,1,192.44,0l11.457,1.637,44.393-89.547Zm20.815,121.373a711.9,711.9,0,0,0-178.488,0L124.07,188.461,164.912,155.9c13.575,11.028,38.644,26.778,71.088,26.778s57.513-15.75,71.088-26.778l40.842,32.564Z"
     id="path826" />
  <path
     style="fill:#333333"
     d="m 482.24635,354.72535 v 104.64 c 0,17.05 -13.88,30.93 -30.93,30.93 h -104.64 c -17.06,0 -30.93,-13.88 -30.93,-30.93 v -104.64 c 0,-17.05 13.87,-30.93 30.93,-30.93 h 104.64 c 17.05,0 30.93,13.88 30.93,30.93 z m -15,104.64 v -104.64 c 0,-8.78 -7.15,-15.93 -15.93,-15.93 h -104.64 c -8.78,0 -15.93,7.15 -15.93,15.93 v 104.64 c 0,8.78 7.15,15.93 15.93,15.93 h 104.64 c 8.78,0 15.93,-7.15 15.93,-15.93 z"
     id="path828" />
  <path
     style="fill:#FFFFFF"
     d="m 467.24635,354.72535 v 104.64 c 0,8.78 -7.15,15.93 -15.93,15.93 h -104.64 c -8.78,0 -15.93,-7.15 -15.93,-15.93 v -104.64 c 0,-8.78 7.15,-15.93 15.93,-15.93 h 104.64 c 8.78,0 15.93,7.15 15.93,15.93 z m -19.74,54.11 c 0.73,-3.99 -1.12,-8.14 -4.56,-10.28 -3.7,-2.29 -8.6,-1.89 -11.87,0.97 -3.02,2.64 -4.15,6.95 -2.87,10.73 1.35,4.01 5.23,6.79 9.46,6.79 4.77,0 8.98,-3.52 9.84,-8.21 z m -0.03,39.98 c 0.81,-4.04 -1.03,-8.28 -4.53,-10.45 -3.65,-2.25 -8.47,-1.91 -11.75,0.87 -3.15,2.66 -4.31,7.12 -2.94,10.99 1.41,3.93 5.23,6.63 9.41,6.63 4.7,0 8.89,-3.42 9.81,-8.04 z m -0.02,-79.55 c 0.85,-4.05 -0.98,-8.35 -4.51,-10.53 -3.7,-2.28 -8.6,-1.89 -11.87,0.98 -3.05,2.68 -4.19,7.09 -2.81,10.91 1.41,3.91 5.23,6.61 9.4,6.61 4.69,0 8.83,-3.39 9.79,-7.97 z m -77.33,-0.08 c 0.82,-4.04 -1.04,-8.27 -4.53,-10.45 -3.6,-2.24 -8.35,-1.91 -11.62,0.77 -3.18,2.61 -4.45,7.05 -3.12,10.94 1.36,4 5.22,6.79 9.46,6.79 4.72,0 8.87,-3.44 9.81,-8.05 z m 0,39.81 c 0.82,-4.04 -1.04,-8.27 -4.53,-10.44 -3.61,-2.23 -8.34,-1.91 -11.62,0.76 -3.19,2.6 -4.44,7.06 -3.12,10.94 1.37,4.01 5.22,6.79 9.46,6.79 4.72,0 8.87,-3.43 9.81,-8.05 z m 0,39.82 c 0.82,-4.04 -1.04,-8.28 -4.53,-10.45 -3.61,-2.23 -8.34,-1.91 -11.62,0.76 -3.19,2.6 -4.44,7.06 -3.12,10.94 1.36,4.02 5.22,6.79 9.46,6.79 4.72,0 8.87,-3.42 9.81,-8.04 z"
     id="path830" />
  <path
     style="fill:#333333"
     d="m 442.94635,398.55535 c 3.44,2.14 5.29,6.29 4.56,10.28 -0.86,4.69 -5.07,8.21 -9.84,8.21 -4.23,0 -8.11,-2.78 -9.46,-6.79 -1.28,-3.78 -0.15,-8.09 2.87,-10.73 3.27,-2.86 8.17,-3.26 11.87,-0.97 z"
     id="path832" />
  <path
     style="fill:#333333"
     d="m 442.94635,438.36535 c 3.5,2.17 5.34,6.41 4.53,10.45 -0.92,4.62 -5.11,8.04 -9.81,8.04 -4.18,0 -8,-2.7 -9.41,-6.63 -1.37,-3.87 -0.21,-8.33 2.94,-10.99 3.28,-2.78 8.1,-3.12 11.75,-0.87 z"
     id="path834" />
  <path
     style="fill:#333333"
     d="m 442.94635,358.73535 c 3.53,2.18 5.36,6.48 4.51,10.53 -0.96,4.58 -5.1,7.97 -9.79,7.97 -4.17,0 -7.99,-2.7 -9.4,-6.61 -1.38,-3.82 -0.24,-8.23 2.81,-10.91 3.27,-2.87 8.17,-3.26 11.87,-0.98 z"
     id="path836" />
  <path
     style="fill:#333333"
     d="m 365.59635,358.73535 c 3.49,2.18 5.35,6.41 4.53,10.45 -0.94,4.61 -5.09,8.05 -9.81,8.05 -4.24,0 -8.1,-2.79 -9.46,-6.79 -1.33,-3.89 -0.06,-8.33 3.12,-10.94 3.27,-2.68 8.02,-3.01 11.62,-0.77 z"
     id="path838" />
  <path
     style="fill:#333333"
     d="m 365.59635,398.55535 c 3.49,2.17 5.35,6.4 4.53,10.44 -0.94,4.62 -5.09,8.05 -9.81,8.05 -4.24,0 -8.09,-2.78 -9.46,-6.79 -1.32,-3.88 -0.07,-8.34 3.12,-10.94 3.28,-2.67 8.01,-2.99 11.62,-0.76 z"
     id="path840" />
  <path
     style="fill:#333333"
     d="m 365.59635,438.36535 c 3.49,2.17 5.35,6.41 4.53,10.45 -0.94,4.62 -5.09,8.04 -9.81,8.04 -4.24,0 -8.1,-2.77 -9.46,-6.79 -1.32,-3.88 -0.07,-8.34 3.12,-10.94 3.28,-2.67 8.01,-2.989 11.62,-0.76 z"
     id="path842" />
</svg>
