<?xml version="1.0" encoding="UTF-8" standalone="no"?>
<svg
   width="440"
   height="453.67026"
   viewBox="0 0 440 453.67026"
   version="1.1"
   id="svg844"
   sodipodi:docname="findSyllabes.svg"
   inkscape:version="1.1 (c4e8f9e, 2021-05-24)"
   xmlns:inkscape="http://www.inkscape.org/namespaces/inkscape"
   xmlns:sodipodi="http://sodipodi.sourceforge.net/DTD/sodipodi-0.dtd"
   xmlns="http://www.w3.org/2000/svg"
   xmlns:svg="http://www.w3.org/2000/svg">
  <defs
     id="defs848" />
  <sodipodi:namedview
     id="namedview846"
     pagecolor="#505050"
     bordercolor="#eeeeee"
     borderopacity="1"
     inkscape:pageshadow="0"
     inkscape:pageopacity="0"
     inkscape:pagecheckerboard="0"
     showgrid="false"
     inkscape:zoom="1.1942822"
     inkscape:cx="219.37864"
     inkscape:cy="241.5677"
     inkscape:window-width="1323"
     inkscape:window-height="1003"
     inkscape:window-x="0"
     inkscape:window-y="25"
     inkscape:window-maximized="0"
     inkscape:current-layer="svg844" />
  <path
     fill="#f779f5"
     d="m 394.7,269.428 c 0.428,-0.853 0.848,-1.712 1.252,-2.564 L 440,174.374 v -22.891 l -3.063,-4.209 C 436.358,146.48 378.892,67.533 359.421,41.574 337.858,12.822 317.093,10e-4 292.092,10e-4 c -19.5,0 -39.3,9.269 -58.825,27.549 A 169.483,169.483 0 0 0 220,41.522 169.483,169.483 0 0 0 206.733,27.549 C 187.205,9.269 167.413,0 147.908,0 122.908,0 102.142,12.821 80.579,41.573 61.108,67.533 3.642,146.48 3.063,147.273 L 0,151.483 v 22.891 l 44.037,92.477 q 0.617,1.3 1.262,2.583 a 134.918,134.918 0 0 0 50.722,54.836 138.545,138.545 0 0 0 71.9,20.065 h 104.156 a 138.545,138.545 0 0 0 71.9,-20.065 134.924,134.924 0 0 0 50.723,-54.842 z m -226.777,42.907 c -39.666,0 -76.572,-22.473 -94.02,-57.247 -0.327,-0.651 -0.648,-1.308 -0.968,-1.982 L 32,167.144 v -5.246 C 44.2,145.149 89.436,83.098 106.179,60.772 125.194,35.418 137.944,32 147.908,32 c 23.113,0 47.41,28.439 54.806,39.374 l 4.754,7.085 h 25.064 l 4.754,-7.085 C 244.14,61.159 268.92,32 292.092,32 c 9.964,0 22.714,3.418 41.729,28.773 16.742,22.323 61.979,84.376 74.179,101.125 v 5.246 l -40.941,85.976 c -0.314,0.66 -0.635,1.317 -0.959,1.962 -17.451,34.78 -54.357,57.253 -94.023,57.253 z"
     id="path824" />
  <path
     fill="#f779f5"
     d="m 288.429,95.31 -10.073,11.394 c -0.233,0.265 -24.313,26.43 -58.356,26.43 -34.158,0 -58.166,-26.219 -58.356,-26.43 L 151.571,95.31 67.93,161.998 l 44.393,89.547 11.457,-1.637 a 680.122,680.122 0 0 1 192.44,0 l 11.457,1.637 44.393,-89.547 z m 20.815,121.373 a 711.9,711.9 0 0 0 -178.488,0 L 108.07,170.92 148.912,138.359 c 13.575,11.028 38.644,26.778 71.088,26.778 32.444,0 57.513,-15.75 71.088,-26.778 l 40.842,32.564 z"
     id="path826" />
  <circle
     style="fill:#ffffff;stroke:#4d4d4d;stroke-width:10.3299;stroke-miterlimit:4;stroke-dasharray:none;stroke-opacity:1"
     id="path1019"
     cx="66.197906"
     cy="398.3374"
     r="31.057022" />
  <circle
     style="fill:#ffffff;stroke:#4d4d4d;stroke-width:10.3299;stroke-miterlimit:4;stroke-dasharray:none;stroke-opacity:1"
     id="path1019-3"
     cx="168.58368"
     cy="398.3374"
     r="31.057022" />
  <circle
     style="fill:#ffffff;stroke:#4d4d4d;stroke-width:10.3299;stroke-miterlimit:4;stroke-dasharray:none;stroke-opacity:1"
     id="path1019-5"
     cx="270.96945"
     cy="398.3374"
     r="31.057022" />
  <circle
     style="fill:#ffffff;stroke:#4d4d4d;stroke-width:10.3299;stroke-miterlimit:4;stroke-dasharray:none;stroke-opacity:1"
     id="path1019-6"
     cx="373.35522"
     cy="398.3374"
     r="31.057022" />
  <path
     style="fill:#00fb02;fill-opacity:1;stroke:#00c22b;stroke-width:7.15933;stroke-miterlimit:4;stroke-dasharray:none;stroke-opacity:1"
     id="path1308"
     d="m 152.41102,400.89057 c 0.30181,0.43912 5.75684,8.40845 5.94675,8.54513 8.73025,6.28293 22.47785,-19.98166 25.6015,-25.18009 0,0 -4.20848,1.87788 -4.20848,1.87788 v 0 c -1.99145,3.27176 -3.98288,6.54352 -5.97433,9.81527 -2.11369,2.92624 -4.41076,5.72623 -6.34108,8.77869 -0.43839,0.69326 0.0411,2.02967 -0.70431,2.36239 -4.12226,1.83996 -5.41015,-2.29468 -7.03948,-4.77094 -0.89726,-1.36366 -1.72565,-2.77218 -2.58847,-4.15828 0,0 -4.6921,2.72995 -4.6921,2.72995 z" />
</svg>
