<?xml version="1.0" encoding="UTF-8" standalone="no"?>
<svg
   width="440"
   height="453.67026"
   viewBox="0 0 440 453.67026"
   version="1.1"
   id="svg844"
   sodipodi:docname="findIntruder.svg"
   inkscape:version="1.1 (c4e8f9e, 2021-05-24)"
   xmlns:inkscape="http://www.inkscape.org/namespaces/inkscape"
   xmlns:sodipodi="http://sodipodi.sourceforge.net/DTD/sodipodi-0.dtd"
   xmlns="http://www.w3.org/2000/svg"
   xmlns:svg="http://www.w3.org/2000/svg">
  <defs
     id="defs848" />
  <sodipodi:namedview
     id="namedview846"
     pagecolor="#505050"
     bordercolor="#eeeeee"
     borderopacity="1"
     inkscape:pageshadow="0"
     inkscape:pageopacity="0"
     inkscape:pagecheckerboard="0"
     showgrid="false"
     inkscape:zoom="1.1942822"
     inkscape:cx="6.6985843"
     inkscape:cy="248.26628"
     inkscape:window-width="1841"
     inkscape:window-height="1003"
     inkscape:window-x="36"
     inkscape:window-y="25"
     inkscape:window-maximized="0"
     inkscape:current-layer="svg844" />
  <g
     id="g1406">
    <path
       fill="#f779f5"
       d="m 394.7,269.428 c 0.428,-0.853 0.848,-1.712 1.252,-2.564 L 440,174.374 v -22.891 l -3.063,-4.209 C 436.358,146.48 378.892,67.533 359.421,41.574 337.858,12.822 317.093,10e-4 292.092,10e-4 c -19.5,0 -39.3,9.269 -58.825,27.549 A 169.483,169.483 0 0 0 220,41.522 169.483,169.483 0 0 0 206.733,27.549 C 187.205,9.269 167.413,0 147.908,0 122.908,0 102.142,12.821 80.579,41.573 61.108,67.533 3.642,146.48 3.063,147.273 L 0,151.483 v 22.891 l 44.037,92.477 q 0.617,1.3 1.262,2.583 a 134.918,134.918 0 0 0 50.722,54.836 138.545,138.545 0 0 0 71.9,20.065 h 104.156 a 138.545,138.545 0 0 0 71.9,-20.065 134.924,134.924 0 0 0 50.723,-54.842 z m -226.777,42.907 c -39.666,0 -76.572,-22.473 -94.02,-57.247 -0.327,-0.651 -0.648,-1.308 -0.968,-1.982 L 32,167.144 v -5.246 C 44.2,145.149 89.436,83.098 106.179,60.772 125.194,35.418 137.944,32 147.908,32 c 23.113,0 47.41,28.439 54.806,39.374 l 4.754,7.085 h 25.064 l 4.754,-7.085 C 244.14,61.159 268.92,32 292.092,32 c 9.964,0 22.714,3.418 41.729,28.773 16.742,22.323 61.979,84.376 74.179,101.125 v 5.246 l -40.941,85.976 c -0.314,0.66 -0.635,1.317 -0.959,1.962 -17.451,34.78 -54.357,57.253 -94.023,57.253 z"
       id="path824" />
    <path
       fill="#f779f5"
       d="m 288.429,95.31 -10.073,11.394 c -0.233,0.265 -24.313,26.43 -58.356,26.43 -34.158,0 -58.166,-26.219 -58.356,-26.43 L 151.571,95.31 67.93,161.998 l 44.393,89.547 11.457,-1.637 a 680.122,680.122 0 0 1 192.44,0 l 11.457,1.637 44.393,-89.547 z m 20.815,121.373 a 711.9,711.9 0 0 0 -178.488,0 L 108.07,170.92 148.912,138.359 c 13.575,11.028 38.644,26.778 71.088,26.778 32.444,0 57.513,-15.75 71.088,-26.778 l 40.842,32.564 z"
       id="path826" />
  </g>
  <g
     id="g1300"
     transform="matrix(1.1702166,0,0,1.2289303,-48.201735,-94.868991)">
    <path
       id="path1813"
       style="fill:#ffffff;stroke:#4d4d4d;stroke-width:8;stroke-miterlimit:4;stroke-dasharray:none;stroke-opacity:1"
       d="m 109.1254,372.09951 c -1.838,0 -4.18983,0.6412 -7.69743,5.39808 -3.088484,4.18878 -11.433052,15.8309 -13.683523,18.97333 v 0.98426 l 7.551162,16.1279 c 0.05909,0.12646 0.118016,0.2498 0.178337,0.37194 3.218541,6.52426 10.026674,10.74081 17.343634,10.74081 h 19.21241 c 7.31698,0 14.12491,-4.21653 17.344,-10.74191 0.0598,-0.12102 0.11897,-0.24445 0.17689,-0.36827 l 7.55224,-16.13047 v -0.98426 c -2.25047,-3.14243 -10.59522,-14.78475 -13.68352,-18.97296 -3.50759,-4.75707 -5.85943,-5.39845 -7.69743,-5.39845 -4.27441,0 -8.84557,5.47061 -10.10988,7.38714 l -0.87693,1.32945 h -4.62315 l -0.87693,-1.32945 c -1.36429,-2.05161 -5.84635,-7.38714 -10.10988,-7.38714 z m 0.6867,20.84806 c 0.31302,0.25863 0.65911,0.53102 1.0369,0.80984 0.18889,0.13941 0.38596,0.2805 0.5905,0.42214 0.20452,0.14164 0.41683,0.28382 0.63662,0.42581 0.21979,0.14199 0.44696,0.28386 0.68165,0.42434 0.23469,0.14047 0.47675,0.27955 0.72597,0.41665 0.24921,0.13707 0.50546,0.272 0.76885,0.40382 0.26336,0.13181 0.53383,0.26046 0.81099,0.38512 0.27715,0.12468 0.56115,0.2453 0.8517,0.36095 0.29057,0.11566 0.58774,0.22651 0.89134,0.33127 0.30361,0.10473 0.61363,0.20336 0.9299,0.29535 0.31626,0.092 0.63879,0.17734 0.96735,0.25468 0.32856,0.0772 0.66326,0.14658 1.00375,0.2074 0.34048,0.0609 0.68664,0.11296 1.03869,0.15538 0.35204,0.0425 0.70968,0.0753 1.07293,0.0975 0.36323,0.0222 0.73201,0.0337 1.10606,0.0337 0.37405,0 0.74283,-0.0115 1.10606,-0.0337 0.36324,-0.0222 0.72087,-0.055 1.07293,-0.0975 0.35205,-0.0425 0.69856,-0.0946 1.03905,-0.15538 0.3405,-0.0609 0.67518,-0.13007 1.00375,-0.2074 0.32856,-0.0773 0.65109,-0.1627 0.96736,-0.25468 0.31626,-0.092 0.62627,-0.19059 0.92989,-0.29535 0.30359,-0.10474 0.60077,-0.21561 0.89133,-0.33127 0.29057,-0.11565 0.57456,-0.23627 0.8517,-0.36095 0.27715,-0.12466 0.54728,-0.25331 0.81064,-0.38512 0.26337,-0.13182 0.51999,-0.26675 0.76921,-0.40382 0.24922,-0.1371 0.49128,-0.27618 0.72596,-0.41665 0.2347,-0.14048 0.46187,-0.28235 0.68166,-0.42434 0.2198,-0.14199 0.43209,-0.28417 0.63662,-0.42581 0.20452,-0.14164 0.40125,-0.28273 0.59014,-0.42214 0.37779,-0.27882 0.72388,-0.55121 1.03689,-0.80984 l 7.53386,6.1097 -4.18467,8.5854 a 131.32032,133.56587 0 0 0 -6.5683,-0.67425 131.32032,133.56587 0 0 0 -6.59317,-0.33714 131.32032,133.56587 0 0 0 -6.60146,0 131.32032,133.56587 0 0 0 -6.59352,0.33714 131.32032,133.56587 0 0 0 -6.56831,0.67425 l -4.18468,-8.58612 z" />
    <path
       style="fill:#00fb02;fill-opacity:1;stroke:#00c22b;stroke-width:7.15933;stroke-miterlimit:4;stroke-dasharray:none;stroke-opacity:1"
       id="path1308"
       d="m 132.13535,405.22708 c 0.30181,0.43912 5.75684,8.40845 5.94675,8.54513 8.73025,6.28293 22.47785,-19.98166 25.6015,-25.18009 0,0 -4.20848,1.87788 -4.20848,1.87788 v 0 c -1.99145,3.27176 -3.98288,6.54352 -5.97433,9.81527 -2.11369,2.92624 -4.41076,5.72623 -6.34108,8.77869 -0.43839,0.69326 0.0411,2.02967 -0.70431,2.36239 -4.12226,1.83996 -5.41015,-2.29468 -7.03948,-4.77094 -0.89726,-1.36366 -1.72565,-2.77218 -2.58847,-4.15828 0,0 -4.6921,2.72995 -4.6921,2.72995 z" />
  </g>
  <g
     id="g1296"
     transform="matrix(1.1702166,0,0,1.2289303,-39.383051,-97.956026)">
    <path
       id="path1813-4"
       style="fill:#ffffff;stroke:#4d4d4d;stroke-width:8;stroke-miterlimit:4;stroke-dasharray:none;stroke-opacity:1"
       d="m 310.1722,373.94225 c -1.838,0 -4.18983,0.6412 -7.69743,5.39808 -3.08848,4.18878 -11.43305,15.8309 -13.68352,18.97333 v 0.98426 l 7.55116,16.1279 c 0.0591,0.12646 0.11802,0.2498 0.17834,0.37194 3.21854,6.52426 10.02667,10.74081 17.34363,10.74081 h 19.21241 c 7.31698,0 14.12491,-4.21653 17.344,-10.74191 0.0598,-0.12102 0.11897,-0.24445 0.17689,-0.36827 l 7.55224,-16.13047 v -0.98426 c -2.25047,-3.14243 -10.59522,-14.78475 -13.68352,-18.97296 -3.50759,-4.75707 -5.85943,-5.39845 -7.69743,-5.39845 -4.27441,0 -8.84557,5.47061 -10.10988,7.38714 l -0.87693,1.32945 h -4.62315 l -0.87693,-1.32945 c -1.36429,-2.05161 -5.84635,-7.38714 -10.10988,-7.38714 z m 0.6867,20.84806 c 0.31302,0.25863 0.65911,0.53102 1.0369,0.80984 0.18889,0.13941 0.38596,0.2805 0.5905,0.42214 0.20452,0.14164 0.41683,0.28382 0.63662,0.42581 0.21979,0.14199 0.44696,0.28386 0.68165,0.42434 0.23469,0.14047 0.47675,0.27955 0.72597,0.41665 0.24921,0.13707 0.50546,0.272 0.76885,0.40382 0.26336,0.13181 0.53383,0.26046 0.81099,0.38512 0.27715,0.12468 0.56115,0.2453 0.8517,0.36095 0.29057,0.11566 0.58774,0.22651 0.89134,0.33127 0.30361,0.10473 0.61363,0.20336 0.9299,0.29535 0.31626,0.092 0.63879,0.17734 0.96735,0.25468 0.32856,0.0772 0.66326,0.14658 1.00375,0.2074 0.34048,0.0609 0.68664,0.11296 1.03869,0.15538 0.35204,0.0425 0.70968,0.0753 1.07293,0.0975 0.36323,0.0222 0.73201,0.0337 1.10606,0.0337 0.37405,0 0.74283,-0.0115 1.10606,-0.0337 0.36324,-0.0222 0.72087,-0.055 1.07293,-0.0975 0.35205,-0.0425 0.69856,-0.0946 1.03905,-0.15538 0.3405,-0.0609 0.67518,-0.13007 1.00375,-0.2074 0.32856,-0.0773 0.65109,-0.1627 0.96736,-0.25468 0.31626,-0.092 0.62627,-0.19059 0.92989,-0.29535 0.30359,-0.10474 0.60077,-0.21561 0.89133,-0.33127 0.29057,-0.11565 0.57456,-0.23627 0.8517,-0.36095 0.27715,-0.12466 0.54728,-0.25331 0.81064,-0.38512 0.26337,-0.13182 0.51999,-0.26675 0.76921,-0.40382 0.24922,-0.1371 0.49128,-0.27618 0.72596,-0.41665 0.2347,-0.14048 0.46187,-0.28235 0.68166,-0.42434 0.2198,-0.14199 0.43209,-0.28417 0.63662,-0.42581 0.20452,-0.14164 0.40125,-0.28273 0.59014,-0.42214 0.37779,-0.27882 0.72388,-0.55121 1.03689,-0.80984 l 7.53386,6.1097 -4.18467,8.5854 a 131.32032,133.56587 0 0 0 -6.5683,-0.67425 131.32032,133.56587 0 0 0 -6.59317,-0.33714 131.32032,133.56587 0 0 0 -6.60146,0 131.32032,133.56587 0 0 0 -6.59352,0.33714 131.32032,133.56587 0 0 0 -6.56831,0.67425 l -4.18468,-8.58612 z" />
    <path
       style="fill:#00fb02;fill-opacity:1;stroke:#00c22b;stroke-width:7.15933;stroke-miterlimit:4;stroke-dasharray:none;stroke-opacity:1"
       id="path1308-1"
       d="m 333.18215,407.06982 c 0.30181,0.43912 5.75684,8.40845 5.94675,8.54513 8.73025,6.28293 22.47785,-19.98166 25.6015,-25.18009 0,0 -4.20848,1.87788 -4.20848,1.87788 v 0 c -1.99145,3.27176 -3.98288,6.54352 -5.97433,9.81527 -2.11369,2.92624 -4.41076,5.72623 -6.34108,8.77869 -0.43839,0.69326 0.0411,2.02967 -0.70431,2.36239 -4.12226,1.83996 -5.41015,-2.29468 -7.03948,-4.77094 -0.89726,-1.36366 -1.72565,-2.77218 -2.58847,-4.15828 0,0 -4.6921,2.72995 -4.6921,2.72995 z" />
  </g>
  <g
     id="g1304"
     transform="matrix(1.1702166,0,0,1.2289303,-33.101345,-97.956026)">
    <path
       id="path1813-1"
       style="fill:#ffffff;stroke:#4d4d4d;stroke-width:8;stroke-miterlimit:4;stroke-dasharray:none;stroke-opacity:1"
       d="m 204.66088,373.70059 c -1.838,0 -4.18983,0.6412 -7.69743,5.39808 -3.08849,4.18878 -11.43305,15.8309 -13.68352,18.97333 v 0.98426 l 7.55116,16.1279 c 0.0591,0.12646 0.11801,0.2498 0.17833,0.37194 3.21855,6.52426 10.02668,10.74081 17.34364,10.74081 h 19.21241 c 7.31698,0 14.12491,-4.21653 17.344,-10.74191 0.0598,-0.12102 0.11897,-0.24445 0.17689,-0.36827 l 7.55224,-16.13047 V 398.072 c -2.25047,-3.14243 -10.59522,-14.78475 -13.68352,-18.97296 -3.50759,-4.75707 -5.85943,-5.39845 -7.69743,-5.39845 -4.27441,0 -8.84557,5.47061 -10.10988,7.38714 l -0.87693,1.32945 h -4.62315 l -0.87693,-1.32945 c -1.36429,-2.05161 -5.84635,-7.38714 -10.10988,-7.38714 z m 0.6867,20.84806 c 0.31302,0.25863 0.65911,0.53102 1.0369,0.80984 0.18889,0.13941 0.38596,0.2805 0.5905,0.42214 0.20452,0.14164 0.41683,0.28382 0.63662,0.42581 0.21979,0.14199 0.44696,0.28386 0.68165,0.42434 0.23469,0.14047 0.47675,0.27955 0.72597,0.41665 0.24921,0.13707 0.50546,0.272 0.76885,0.40382 0.26336,0.13181 0.53383,0.26046 0.81099,0.38512 0.27715,0.12468 0.56115,0.2453 0.8517,0.36095 0.29057,0.11566 0.58774,0.22651 0.89134,0.33127 0.30361,0.10473 0.61363,0.20336 0.9299,0.29535 0.31626,0.092 0.63879,0.17734 0.96735,0.25468 0.32856,0.0772 0.66326,0.14658 1.00375,0.2074 0.34048,0.0609 0.68664,0.11296 1.03869,0.15538 0.35204,0.0425 0.70968,0.0753 1.07293,0.0975 0.36323,0.0222 0.73201,0.0337 1.10606,0.0337 0.37405,0 0.74283,-0.0115 1.10606,-0.0337 0.36324,-0.0222 0.72087,-0.055 1.07293,-0.0975 0.35205,-0.0425 0.69856,-0.0946 1.03905,-0.15538 0.3405,-0.0609 0.67518,-0.13007 1.00375,-0.2074 0.32856,-0.0773 0.65109,-0.1627 0.96736,-0.25468 0.31626,-0.092 0.62627,-0.19059 0.92989,-0.29535 0.30359,-0.10474 0.60077,-0.21561 0.89133,-0.33127 0.29057,-0.11565 0.57456,-0.23627 0.8517,-0.36095 0.27715,-0.12466 0.54728,-0.25331 0.81064,-0.38512 0.26337,-0.13182 0.51999,-0.26675 0.76921,-0.40382 0.24922,-0.1371 0.49128,-0.27618 0.72596,-0.41665 0.2347,-0.14048 0.46187,-0.28235 0.68166,-0.42434 0.2198,-0.14199 0.43209,-0.28417 0.63662,-0.42581 0.20452,-0.14164 0.40125,-0.28273 0.59014,-0.42214 0.37779,-0.27882 0.72388,-0.55121 1.03689,-0.80984 l 7.53386,6.1097 -4.18467,8.5854 a 131.32032,133.56587 0 0 0 -6.5683,-0.67425 131.32032,133.56587 0 0 0 -6.59317,-0.33714 131.32032,133.56587 0 0 0 -6.60146,0 131.32032,133.56587 0 0 0 -6.59352,0.33714 131.32032,133.56587 0 0 0 -6.56831,0.67425 l -4.18468,-8.58612 z" />
    <path
       style="fill:#ff0000;stroke-width:0.109153"
       d="m 259.60378,384.86415 c 0.3564,-0.75515 0.29641,-1.61124 -0.0157,-2.32188 0.088,-0.80863 -0.10674,-1.62966 -0.81102,-2.2594 -0.65565,-0.58616 -1.31118,-1.17266 -1.9664,-1.75894 -1.15224,-1.0304 -2.95645,-1.35563 -4.07717,0 -5.09048,6.15666 -10.4137,12.0459 -15.93209,17.72075 -4.10272,-4.16548 -8.25527,-8.27439 -12.3781,-12.38865 -1.44698,-1.44439 -3.54141,-0.99114 -4.4518,0.72954 -1.32604,0.71532 -2.4009,1.64787 -3.28971,3.23952 -0.4232,0.75833 -0.39023,1.71557 0,2.47663 2.66161,5.18655 7.80622,9.74666 12.03614,13.9432 -0.566,0.55065 -1.12783,1.10654 -1.70526,1.64558 -5.69889,5.31901 -9.54289,8.69383 -2.41117,14.14757 0.0962,0.0735 0.19432,0.0573 0.29201,0.10032 0.13664,0.0685 0.26772,0.11674 0.41923,0.14383 0.047,0.002 0.0911,0.0102 0.13747,0.007 0.14679,0.0129 0.29045,0.0535 0.43922,0.0219 3.83427,-0.81705 7.39997,-4.08275 10.63515,-7.67889 3.1515,3.37617 6.50728,6.60159 10.19737,8.51539 0.87855,0.45575 1.92599,0.19015 2.60235,-0.44733 1.13413,0.0931 2.16816,-0.67287 2.68716,-1.77361 0.0768,-0.0516 0.12638,-0.0811 0.20962,-0.13769 1.64882,-1.11951 1.7995,-3.34911 0.57941,-4.8859 -2.755,-3.46983 -5.6836,-6.76831 -8.66905,-10.00828 5.37547,-5.70863 12.08756,-11.8654 15.47233,-19.03028 z"
       id="path914" />
  </g>
</svg>
