<?xml version="1.0" encoding="UTF-8" standalone="no"?>
<!-- Generator: Adobe Illustrator 19.0.0, SVG Export Plug-In . SVG Version: 6.00 Build 0)  -->

<svg
   version="1.1"
   id="Layer_1"
   x="0px"
   y="0px"
   viewBox="0 0 500 500"
   style="enable-background:new 0 0 500 500;"
   xml:space="preserve"
   sodipodi:docname="listen.svg"
   inkscape:version="1.1 (c4e8f9e, 2021-05-24)"
   xmlns:inkscape="http://www.inkscape.org/namespaces/inkscape"
   xmlns:sodipodi="http://sodipodi.sourceforge.net/DTD/sodipodi-0.dtd"
   xmlns="http://www.w3.org/2000/svg"
   xmlns:svg="http://www.w3.org/2000/svg"><defs
   id="defs869" /><sodipodi:namedview
   id="namedview867"
   pagecolor="#505050"
   inkscape:pageshadow="0"
   inkscape:pageopacity="0"
   inkscape:pagecheckerboard="0"
   showgrid="false"
   inkscape:zoom="0.75575672"
   inkscape:cx="206.41563"
   inkscape:cy="258.68113"
   inkscape:window-width="1323"
   inkscape:window-height="1003"
   inkscape:window-x="0"
   inkscape:window-y="25"
   inkscape:window-maximized="0"
   inkscape:current-layer="Layer_1" />
<g
   id="g828">
	<g
   id="g826">
		<path
		fill="#FFFFFF"
   d="M250.002,0C151.674,0,71.67,79.996,71.67,178.328c0,10.768,8.764,19.528,19.532,19.528s19.532-8.756,19.532-19.528    c0-76.792,62.476-139.268,139.268-139.268s139.264,62.476,139.264,139.268c0,50.956-21.42,71.864-46.24,96.076    c-26.956,26.312-57.512,56.136-57.512,122.452c0,35.336-28.752,64.084-64.084,64.084c-35.332,0-64.076-28.748-64.076-64.084    c0-10.768-8.76-19.532-19.532-19.532c-10.768,0-19.532,8.76-19.532,19.532C118.29,453.728,164.558,500,221.43,500    s103.148-46.272,103.148-103.144c0-49.868,21.2-70.552,45.752-94.512c27.188-26.536,58-56.604,58-124.016    C428.33,79.996,348.334,0,250.002,0z"
   id="path824" />
	</g>
</g>
<g
   id="g834">
	<g
   id="g832">
		<path
		fill="#FFFFFF"
   d="M257.898,95.008c-47.372,0-86.016,38.54-86.016,85.908v24.488c0,0.06-1.616,0.08-2.484,0.168    c-6.436,0.68-11.048,6.444-10.368,12.884c0.68,6.44,6.548,11.152,12.912,10.424c9.004-0.952,17.904,1.008,25.716,5.64    c19.856,11.78,26.424,37.52,14.644,57.372c-11.792,19.852-37.524,26.412-57.364,14.636c-5.564-3.3-12.756-1.46-16.06,4.096    c-3.304,5.564-1.468,12.752,4.096,16.06c10.428,6.188,21.892,9.128,33.216,9.128c22.312,0,44.084-11.42,56.272-31.96    c8.9-15.004,11.428-32.576,7.116-49.472c-4.312-16.904-15.068-31.112-30.064-40.016c-4.496-2.664-10.296-4.748-14.2-6.256v-27.192    c0-34.444,28.14-62.468,62.584-62.468c34.448,0,62.536,28.024,62.536,62.468c0,6.476,5.272,11.72,11.752,11.72    c6.468,0,11.732-5.244,11.732-11.72C343.918,133.548,305.266,95.008,257.898,95.008z"
   id="path830" />
	</g>
</g>

<path
   fill="#EEEEEE"
   d="m 497.24126,387.97392 v 0 -32 0 a 110.961,110.961 0 0 0 -107,82.1 l 30.92,8.285 a 78.9,78.9 0 0 1 76.08,-58.385 z"
   id="path955" /><path
   fill="#EEEEEE"
   d="m 359.33226,429.79092 c 16.325,-60.868 71.962,-105.817 137.909,-105.817 v 0 -32 0 c -80.729,0 -148.837,55.024 -168.82,129.534 z"
   id="path957" /></svg>
