<?xml version="1.0" encoding="UTF-8" standalone="no"?>
<!-- Generator: Adobe Illustrator 19.0.0, SVG Export Plug-In . SVG Version: 6.00 Build 0)  -->

<svg
   version="1.1"
   id="Layer_1"
   x="0px"
   y="0px"
   viewBox="0 0 496.158 496.158"
   style="enable-background:new 0 0 496.158 496.158;"
   xml:space="preserve"
   sodipodi:docname="next.svg"
   inkscape:version="1.1 (c4e8f9e, 2021-05-24)"
   xmlns:inkscape="http://www.inkscape.org/namespaces/inkscape"
   xmlns:sodipodi="http://sodipodi.sourceforge.net/DTD/sodipodi-0.dtd"
   xmlns="http://www.w3.org/2000/svg"
   xmlns:svg="http://www.w3.org/2000/svg"><defs
   id="defs835">
	
	
</defs><sodipodi:namedview
   id="namedview833"
   pagecolor="#505050"
   bordercolor="#eeeeee"
   borderopacity="1"
   inkscape:pageshadow="0"
   inkscape:pageopacity="0"
   inkscape:pagecheckerboard="0"
   showgrid="false"
   inkscape:zoom="1.5176617"
   inkscape:cx="187.12998"
   inkscape:cy="292.88477"
   inkscape:window-width="1323"
   inkscape:window-height="1003"
   inkscape:window-x="286"
   inkscape:window-y="25"
   inkscape:window-maximized="0"
   inkscape:current-layer="Layer_1" />
<path
   id="path824"
   style="fill:#FFFFFF;"
   d="M 248.08203 0.00390625 C 111.07003 0.00390625 3.7895613e-14 111.06394 0 248.08594 C 0 385.08794 111.06903 496.1543 248.08203 496.1543 C 385.08703 496.1543 496.1582 385.08794 496.1582 248.08594 C 496.1582 111.06494 385.08803 0.00390625 248.08203 0.00390625 z M 253.29688 149.02148 C 255.54012 149.06723 257.77222 149.68369 259.69922 150.86719 L 400.88477 237.55859 C 404.63477 239.85959 406.95722 244.02573 406.94922 248.42773 C 406.94222 252.82873 404.6037 256.98444 400.8457 259.27344 L 259.66016 345.2832 C 257.66616 346.4962 255.37706 347.13867 253.03906 347.13867 C 250.86106 347.13867 248.70564 346.57777 246.80664 345.50977 C 242.80064 343.26077 240.3125 339.00811 240.3125 334.41211 L 240.3125 274.58203 L 101.25586 274.58203 C 94.600858 274.58203 89.207031 269.18916 89.207031 262.53516 L 89.207031 233.61914 C 89.207031 226.96714 94.600858 221.57227 101.25586 221.57227 L 240.3125 221.57227 L 240.3125 161.71289 C 240.3125 157.11089 242.80817 152.85347 246.82617 150.60547 C 248.79917 149.50097 251.05363 148.97573 253.29688 149.02148 z " />


</svg>
