<?xml version="1.0" encoding="UTF-8" standalone="no"?>
<!-- Created with Inkscape (http://www.inkscape.org/) -->

<svg
   width="111.5752mm"
   height="91.523743mm"
   viewBox="0 0 111.5752 91.523743"
   version="1.1"
   id="svg1264"
   inkscape:version="1.1 (c4e8f9e, 2021-05-24)"
   sodipodi:docname="girl.svg"
   xmlns:inkscape="http://www.inkscape.org/namespaces/inkscape"
   xmlns:sodipodi="http://sodipodi.sourceforge.net/DTD/sodipodi-0.dtd"
   xmlns="http://www.w3.org/2000/svg"
   xmlns:svg="http://www.w3.org/2000/svg">
  <sodipodi:namedview
     id="namedview1266"
     pagecolor="#505050"
     bordercolor="#eeeeee"
     borderopacity="1"
     inkscape:pageshadow="0"
     inkscape:pageopacity="0"
     inkscape:pagecheckerboard="0"
     inkscape:document-units="mm"
     showgrid="false"
     inkscape:zoom="0.67081229"
     inkscape:cx="65.59212"
     inkscape:cy="562.75057"
     inkscape:window-width="1323"
     inkscape:window-height="1003"
     inkscape:window-x="0"
     inkscape:window-y="25"
     inkscape:window-maximized="0"
     inkscape:current-layer="layer1" />
  <defs
     id="defs1261" />
  <g
     inkscape:label="Calque 1"
     inkscape:groupmode="layer"
     id="layer1"
     transform="translate(-9.2920832,-10.640521)">
    <path
       d="m 101.87817,78.398846 c -2.777593,9.077589 -8.253675,16.032691 -17.061124,19.647164 -13.695098,5.62028 -27.569583,5.58509 -41.080267,-0.704586 -7.151423,-3.328987 -11.9126,-9.148233 -14.687285,-16.548629 0.532871,-0.312737 0.548746,-0.337079 1.213379,0.08996 1.201208,0.772319 2.484438,1.278996 3.899694,1.534319 2.997729,0.540543 5.468143,-0.288925 7.436643,-2.626784 1.977232,-2.348442 2.577836,-4.945063 1.467644,-7.861565 -1.21576,-3.194315 -3.282685,-5.48005 -6.859058,-5.765006 -3.036358,-0.242094 -5.284788,1.339056 -7.060935,3.668977 -0.645584,0.846931 -1.090348,1.801018 -1.438804,2.808552 -0.129646,0.374385 -0.07752,0.929746 -0.6985,0.968639 -1.120511,-5.221023 -1.264709,-10.456862 -0.30189,-15.721541 1.405996,-7.688792 4.067969,-14.821429 9.147968,-20.897585 3.238765,-3.873765 7.17603,-6.851121 11.677915,-9.110927 0.630502,-0.316442 1.028435,-0.373857 1.531938,0.291041 7.359914,9.722115 17.209293,15.922361 28.509912,20.050654 0.288131,0.105304 0.575469,0.217223 0.871537,0.295804 1.379009,0.366184 2.348971,0.892175 2.886869,2.525977 0.791104,2.403475 3.02551,3.299619 5.437717,3.525044 2.382308,0.22225 4.750858,-0.05794 7.100093,-0.439208 0.877623,-0.142346 1.319477,-0.08996 1.421342,1.009121 0.210079,2.271183 0.502179,4.55242 1.299898,6.713802 1.278202,3.463395 3.679564,4.926277 7.348804,4.454789 -0.0116,2.482056 -0.35084,4.907756 -0.81624,7.32155 -0.56224,-0.06218 -0.50033,-0.543983 -0.5723,-0.900906 -0.75961,-3.759729 -3.176054,-5.755746 -6.834977,-6.39101 -4.646083,-0.806715 -8.78787,2.234141 -9.500129,6.936845 -0.468048,3.091656 2.198688,7.504377 5.330031,8.818827 2.925763,1.228461 6.584421,0.124354 8.730195,-2.628106 0.37862,-0.485775 0.65405,-1.071562 1.13691,-1.449917 0.4535,-0.35507 0.62865,-0.133085 0.46302,0.384705"
       fill="#fef8ea"
       id="path852"
       style="stroke-width:0.264583" />
    <path
       d="m 34.26549,20.96389 c -0.05662,-0.210344 0.01826,-0.298186 0.235743,-0.254 0.365655,-0.236273 0.630767,-0.580761 0.940859,-0.876565 7.118614,-4.777052 14.766396,-8.249444 23.410068,-8.961702 16.012319,-1.3194769 30.309079,2.974446 42.29073,13.827654 8.39153,7.601215 13.40089,17.375981 16.52429,28.133146 2.25875,7.779279 3.24485,15.772871 3.19855,23.865681 -0.0278,4.842139 -0.7583,9.584266 -3.45784,13.776589 -3.62347,5.627159 -11.88164,8.950325 -18.393832,7.457281 -1.368161,-0.313531 -2.484702,-1.099872 -3.610504,-1.874837 -0.730779,-0.503238 -0.0085,-0.738188 0.22516,-0.958321 3.247761,-3.061494 5.789346,-6.624902 7.667096,-10.668 0.0929,-0.19976 0.19658,-0.395023 0.27834,-0.599016 0.45773,-1.143794 0.67733,-2.484173 1.42716,-3.382169 0.81466,-0.975519 2.26484,-0.183886 3.44197,-0.432594 3.18876,-0.673629 5.3041,-2.71145 5.99519,-6.242579 0.39291,-2.007129 0.33708,-4.034631 -0.22516,-6.007894 -0.67363,-2.364581 -2.18334,-3.876939 -4.86727,-4.296833 1.34329,-1.258094 2.60799,-2.434696 3.69226,-3.783541 1.02526,-1.275292 1.97908,-2.591859 2.68446,-4.071938 1.58088,-3.315758 0.59796,-6.343121 -2.71939,-7.973483 -3.28983,-1.616869 -6.83657,-1.951038 -10.43384,-1.589352 -1.20624,0.121179 -1.76319,-0.03678 -1.98544,-1.382184 -0.53578,-3.242997 -1.623743,-6.307931 -3.648863,-8.963554 -2.650861,-3.47636 -6.263482,-3.763697 -9.429221,-0.761735 -0.03175,0.03043 -0.06218,0.06244 -0.09366,0.09313 -1.89177,1.827213 -1.90447,1.837267 -3.546739,-0.205052 -2.433111,-3.026565 -4.63418,-6.212943 -6.517749,-9.613368 -0.712258,-1.286139 -1.667933,-1.716352 -2.654564,-1.204912 -0.947209,0.490802 -1.119453,1.580621 -0.392113,2.878666 2.376752,4.241536 5.123392,8.227484 8.388615,11.836136 0.667808,0.738187 0.984779,1.306777 0.325437,2.256367 -0.803804,1.157287 -1.342231,2.489464 -1.72429,3.844395 -0.224102,0.79375 -0.544247,0.833702 -1.220787,0.60378 -7.40701,-2.517775 -14.267921,-6.034352 -20.298304,-11.069109 -3.569758,-2.980531 -6.747404,-6.320631 -9.305925,-10.227733 -0.854339,-1.304925 -2.053431,-1.410229 -3.039798,-0.275167 -0.30771,0.354013 -0.651669,0.573617 -1.045898,0.762794 -11.198225,5.370248 -18.000662,14.380104 -21.518826,26.075746 -1.167607,3.881702 -2.056871,7.830343 -2.143655,11.912864 -0.01376,0.646642 -0.18997,0.915194 -0.932391,0.896673 -3.252258,-0.08123 -5.176044,1.43801 -5.992019,4.595019 -0.540544,2.090737 -0.554567,4.170627 -0.005,6.262952 1.026848,3.909748 4.283075,6.212945 8.301831,5.736166 0.739775,-0.08784 1.003036,0.06959 1.230577,0.718079 1.697831,4.840023 4.214019,9.19533 7.7597,12.929129 0.815446,0.858838 1.632214,1.716353 2.468562,2.595828 -1.24751,1.149614 -2.875227,1.591733 -4.591314,1.819275 -5.32765,-1.132153 -8.798983,-4.677834 -11.417035,-9.118865 -3.375554,-5.726112 -4.687888,-12.084844 -5.379508,-18.639366 -0.981075,-9.29984 1.468966,-17.905148 5.010943,-26.30514 3.063081,-7.264135 6.986059,-14.03641 12.011289,-20.138231 0.913871,-1.109662 1.843617,-2.217208 3.082132,-3.00011"
       fill="#dcae53"
       id="path858"
       style="stroke-width:0.264583" />
    <path
       d="m 34.26549,20.96389 c -7.211483,7.86421 -12.485158,16.908462 -16.215783,26.864204 -2.45745,6.558756 -4.10554,13.293195 -3.677709,20.379531 0.406136,6.730471 1.579563,13.293725 4.738953,19.340777 2.505339,4.794514 5.91476,8.647641 11.361472,10.205508 0.185473,0.05292 0.323585,0.270933 0.484717,0.411692 C 24.135388,98.494214 19.019934,95.460766 15.144053,90.066177 11.073703,84.400918 9.2713608,77.951435 9.2922628,71.081264 9.3438528,54.110096 15.757621,39.600875 26.88044,27.015175 c 1.843087,-2.085446 3.970073,-3.872971 6.201568,-5.528733 0.33364,-0.247386 0.593196,-0.804598 1.183482,-0.522552"
       fill="#fefefe"
       id="path882"
       style="stroke-width:0.264583" />
    <path
       d="m 84.130716,48.00166 c 0.250032,-2.483908 1.441715,-4.777845 2.858294,-6.975474 0.933979,-1.449123 2.016654,-2.783946 3.331633,-3.908425 1.281113,-1.095111 2.162704,-1.077119 3.326077,0.12647 1.938602,2.0066 2.743994,4.579673 3.391959,7.193757 0.294216,1.18745 0.43471,2.424906 0.52361,3.648604 0.121444,1.67296 0.810419,2.209535 2.497141,1.833298 3.234,-0.72099 6.46059,-0.645848 9.67449,0.139435 0.17092,0.0418 0.34316,0.08096 0.50905,0.138113 2.95381,1.017587 3.43826,2.28256 1.78303,4.937124 -1.81901,2.917296 -4.1066,5.401998 -7.14957,7.081573 -2.73235,1.507861 -4.24524,0.87974 -5.188214,-2.087827 -0.764646,-2.405591 -0.844814,-4.933421 -1.282435,-7.39775 -0.122238,-0.687916 -0.125413,-1.432983 -0.600075,-1.992048 -0.495829,-0.5842 -1.14935,-0.722312 -1.914261,-0.531547 -2.909358,0.724958 -5.863695,1.117335 -8.8646,0.92022 -1.869281,-0.122766 -2.893483,-1.224756 -2.896129,-3.125523"
       fill="#ff7164"
       id="path884"
       style="stroke-width:0.264583" />
    <path
       d="m 101.87817,78.398846 c -0.31882,-0.75565 -0.40402,5.29e-4 -0.4699,0.10451 -1.29143,2.038085 -2.972062,3.563673 -5.372891,4.165335 -3.421063,0.856986 -6.764073,-0.596635 -8.55689,-3.631406 -2.922587,-4.947973 -1.897591,-8.571971 2.333625,-11.981127 2.41644,-1.947069 6.195748,-1.658144 9.337146,0.117211 2.27145,1.283758 3.57452,3.323166 3.77084,5.99096 0.0119,0.15875 0.13441,0.309033 0.20532,0.463814 -0.30004,1.620573 -0.58182,3.245909 -1.24725,4.770703"
       fill="#ffceb4"
       id="path898"
       style="stroke-width:0.264583" />
    <path
       d="m 27.009557,73.609887 c 0.683154,-2.474648 1.909498,-4.619889 3.974041,-6.187281 4.157398,-3.156744 9.636654,-1.634596 11.971602,3.250142 2.228585,4.662752 0.727869,8.59737 -3.245644,11.177852 -3.100652,2.013479 -6.300523,1.150408 -9.350904,-0.479161 -0.416983,-0.222779 -0.680244,-0.828675 -1.308894,-0.578379 -1.003035,-2.302933 -1.668991,-4.701117 -2.040201,-7.183173"
       fill="#ffceb4"
       id="path904"
       style="stroke-width:0.264583" />
    <path
       d="m 18.802976,71.275469 c 0.134672,-1.037167 0.141552,-2.061898 0.548216,-3.008048 0.313531,-0.728927 0.820738,-1.212321 1.668463,-1.310217 1.432718,-0.165365 1.6383,0.0077 1.746779,1.458383 0.187325,2.504546 0.545306,4.988719 1.112308,7.434527 0.164042,0.708025 -0.04763,0.817827 -0.675746,0.82259 -2.097616,0.0164 -3.617118,-1.126067 -4.100512,-3.208073 -0.168275,-0.724958 -0.206111,-1.479815 -0.299508,-2.189162"
       fill="#fef7e9"
       id="path960"
       style="stroke-width:0.264583" />
    <path
       d="m 111.22696,71.167254 c -0.10319,1.117335 -0.0942,2.221442 -0.57573,3.250935 -0.70803,1.512623 -2.3548,2.43549 -3.99045,2.255044 -0.47175,-0.05212 -0.62124,-0.203465 -0.51091,-0.654844 0.67098,-2.741348 1.02314,-5.530585 1.20438,-8.342048 0.0328,-0.508529 0.28099,-0.642408 0.73422,-0.716227 1.38404,-0.225425 2.27277,0.299244 2.76252,1.633273 0.31088,0.846667 0.25744,1.733286 0.37597,2.573867"
       fill="#fef8ea"
       id="path962"
       style="stroke-width:0.264583" />
    <path
       d="m 35.442092,19.833325 c -0.160073,0.456935 -0.450321,0.774171 -0.940859,0.876565 0.04604,-0.579173 0.520436,-0.69903 0.940859,-0.876565"
       fill="#dfc9a5"
       id="path1014"
       style="stroke-width:0.264583" />
    <path
       d="m 78.509644,65.960519 c 0.05053,-1.530086 0.416189,-2.650861 1.194593,-3.488532 0.709348,-0.763587 0.847196,-1.508918 0.706438,-2.465652 -0.0926,-0.627856 -0.183092,-1.433248 0.803539,-1.481931 0.925513,-0.04577 0.833702,0.676011 0.859102,1.29884 0.02514,0.620712 0.290513,0.923131 0.974196,1.153318 1.966119,0.661194 2.583392,2.370402 2.794,4.236509 0.186267,1.647296 -0.134937,3.163358 -1.600994,4.193381 -1.094052,0.768614 -2.280708,0.922073 -3.465512,0.245533 -1.54596,-0.883179 -2.229115,-2.286794 -2.265362,-3.691466"
       fill="#6e4100"
       id="path1052"
       style="stroke-width:0.264583" />
    <path
       d="m 43.883358,65.657306 c -0.01879,-1.340908 0.462227,-2.534444 1.359429,-3.475567 0.627857,-0.658812 0.940594,-1.270529 0.783696,-2.186252 -0.109273,-0.637381 -0.163512,-1.438275 0.820209,-1.468966 0.925247,-0.0291 0.79957,0.706173 0.843227,1.324769 0.03678,0.519377 0.181504,0.891381 0.813329,1.159933 2.67044,1.134269 3.628496,5.663935 1.703917,7.834577 -0.957527,1.080029 -2.201598,1.518708 -3.58193,1.044839 -1.597554,-0.548745 -2.40956,-1.833827 -2.734733,-3.442758 -0.05133,-0.253735 -0.0071,-0.526521 -0.0071,-0.790575"
       fill="#6e4100"
       id="path1054"
       style="stroke-width:0.264583" />
    <path
       d="m 65.055052,88.652508 c -2.198687,-0.124619 -4.298156,-0.518054 -5.810514,-2.336006 -0.556684,-0.669132 -1.092994,-1.465792 -0.228865,-2.192073 0.845344,-0.710936 1.446742,-0.155311 2.046287,0.602191 1.731963,2.189427 6.550819,2.048405 8.248386,-0.214047 0.510116,-0.67998 1.093258,-0.932921 1.795462,-0.470959 0.745331,0.490273 0.6223,1.19089 0.195792,1.856052 -1.307306,2.038086 -3.39434,2.506134 -5.586413,2.751667 -0.217487,0.02434 -0.440002,0.0032 -0.660135,0.0032"
       fill="#6e4100"
       id="path1056"
       style="stroke-width:0.264583" />
    <path
       d="m 42.280777,41.397925 c -0.04392,-1.22555 1.437481,-2.919412 3.048529,-3.48615 1.452298,-0.510646 3.256227,-0.130439 4.01664,0.841375 0.366977,0.469106 0.437885,0.963084 0.07302,1.448859 -0.377027,0.502443 -0.911485,0.494241 -1.432449,0.293952 -1.99099,-0.765175 -2.491052,-0.614892 -3.532982,1.244335 -0.327025,0.583671 -0.736335,0.853017 -1.381654,0.713317 -0.554037,-0.119857 -0.800894,-0.498475 -0.791104,-1.055688"
       fill="#6f4300"
       id="path1058"
       style="stroke-width:0.264583" />
    <path
       d="m 65.996175,66.821737 c -0.08176,0.758825 -0.571765,1.188773 -1.378215,1.181629 -0.738981,-0.0063 -1.748102,-1.440391 -1.692539,-2.372783 0.04948,-0.835025 0.536839,-1.272646 1.365514,-1.248833 0.750359,0.0217 1.737784,1.427162 1.70524,2.439987"
       fill="#714502"
       id="path1060"
       style="stroke-width:0.264583" />
  </g>
</svg>
