<?xml version="1.0" encoding="UTF-8" standalone="no"?>
<!-- Created with Inkscape (http://www.inkscape.org/) -->

<svg
   width="107.93887mm"
   height="97.67791mm"
   viewBox="0 0 107.93887 97.67791"
   version="1.1"
   id="svg1451"
   inkscape:version="1.1 (c4e8f9e, 2021-05-24)"
   sodipodi:docname="boy.svg"
   xmlns:inkscape="http://www.inkscape.org/namespaces/inkscape"
   xmlns:sodipodi="http://sodipodi.sourceforge.net/DTD/sodipodi-0.dtd"
   xmlns="http://www.w3.org/2000/svg"
   xmlns:svg="http://www.w3.org/2000/svg">
  <sodipodi:namedview
     id="namedview1453"
     pagecolor="#505050"
     bordercolor="#eeeeee"
     borderopacity="1"
     inkscape:pageshadow="0"
     inkscape:pageopacity="0"
     inkscape:pagecheckerboard="0"
     inkscape:document-units="mm"
     showgrid="false"
     inkscape:zoom="0.67081229"
     inkscape:cx="345.84936"
     inkscape:cy="534.4267"
     inkscape:window-width="1323"
     inkscape:window-height="1003"
     inkscape:window-x="0"
     inkscape:window-y="25"
     inkscape:window-maximized="0"
     inkscape:current-layer="layer1" />
  <defs
     id="defs1448" />
  <g
     inkscape:label="Calque 1"
     inkscape:groupmode="layer"
     id="layer1"
     transform="translate(-22.154072,-16.635148)">
    <path
       d="m 35.957351,76.555182 c 0.01323,-15.365148 4.672541,-28.620508 17.38577,-38.199747 0.981605,-0.738981 2.079625,-1.321065 3.100917,-2.010304 0.73025,-0.493713 0.997479,-0.359569 1.150937,0.537104 0.92075,5.374216 3.032125,10.265304 6.167438,14.714537 1.582208,2.248429 3.413125,4.259527 5.81025,5.686425 3.913187,2.328333 7.776104,1.524529 10.408708,-2.184135 1.053042,-1.483784 1.780646,-3.126582 2.304521,-5.001684 2.140479,2.64795 4.5085,4.915694 7.310437,6.706659 1.336146,0.855133 2.717271,1.629568 4.193646,2.210329 5.109104,2.00951 8.723315,0.281252 10.514545,-5.062802 1.88648,1.764506 3.89202,3.319991 6.22564,4.408752 1.61131,0.751416 3.2729,1.318948 5.06942,1.273968 0.70114,-0.01746 1.02394,0.227013 1.20121,0.877094 1.40758,5.154877 2.55323,10.343092 2.12725,15.744825 -0.635,-0.05159 -0.66146,-0.641615 -0.86784,-1.035844 -2.17223,-4.160837 -6.72835,-5.35596 -10.75531,-4.465637 -3.19352,0.705644 -7.416269,5.672137 -5.57742,10.511896 0.23548,0.618331 0.50007,1.219464 0.78846,1.813983 3.1115,6.433608 10.66536,6.145741 14.24782,0.934773 0.36512,-0.532077 0.53975,-1.327944 1.41552,-1.342231 0.0132,-2.65e-4 0.0397,0.06271 0.0423,0.09763 0.003,0.04286 -0.0106,0.08705 -0.0159,0.130704 -2.19075,12.925689 -8.61747,22.827983 -21.116391,27.668543 -12.813771,4.96331 -25.963562,4.94929 -38.861999,0.20372 -11.170709,-4.10977 -17.713854,-12.573526 -20.73275,-23.919653 -0.134938,-0.508264 -0.216958,-1.030552 -0.322792,-1.546489 0.01588,-0.598488 0.386292,-0.338402 0.611188,-0.212725 0.579437,0.319352 1.063625,0.780785 1.603375,1.159404 2.854854,2.000514 7.704666,2.160323 10.11502,0.33311 4.378855,-3.320785 5.066771,-7.78457 2.12725,-12.425891 -3.243791,-5.122069 -10.162645,-4.532313 -13.22652,-0.382059 -0.576792,0.78105 -1.124479,1.57189 -1.561042,2.443957 -0.166687,0.333375 -0.328083,0.931598 -0.883708,0.331787"
       fill="#fef8ea"
       id="path848"
       style="stroke-width:0.264583" />
    <path
       d="m 40.664288,31.018804 c 0.447146,-0.402696 1.010709,-0.197644 1.518709,-0.278871 1.209145,-0.193411 2.354791,-0.415661 2.722562,-1.869281 0.07408,-0.294746 0.418042,-0.558007 0.693208,-0.760678 7.699375,-5.68272 16.118417,-9.811808 25.68575,-11.020689 10.384896,-1.312333 20.436416,0.246063 30.093703,4.331229 6.36588,2.692665 12.07823,6.387042 16.92275,11.298502 6.61459,6.701896 10.5754,14.731735 11.58875,24.164131 0.60325,5.631392 -0.13493,11.050587 -2.23572,16.300979 -0.33867,0.845608 -0.63236,1.359429 -1.62719,0.625475 -0.62442,-0.462492 -1.46315,-0.704321 -2.25161,-0.65061 -1.09802,0.07461 -1.3626,-0.305065 -1.39964,-1.394355 -0.14288,-4.066645 -1.11654,-8.003116 -2.16429,-11.913658 -0.17463,-0.64426 -0.26459,-1.118658 0.2831,-1.656556 0.59796,-0.586581 0.60325,-1.382977 0.11906,-2.055812 -0.51064,-0.710936 -1.27793,-1.01944 -2.0955,-0.59743 -2.33098,1.2065 -4.55612,0.702205 -6.69396,-0.426508 -4.1222,-2.177521 -7.40833,-5.185833 -9.2022,-9.615487 -0.5133,-1.266561 -1.33615,-1.699684 -2.32305,-1.299634 -0.984245,0.397934 -1.354662,1.305984 -0.912808,2.525713 0.658808,1.824831 1.291168,3.641196 1.365248,5.612341 0.14288,3.768196 -2.02406,4.633648 -4.794247,3.674269 C 90.268371,54.042051 85.841892,50.383128 83.32835,44.728983 82.952642,43.878347 82.767434,42.96236 82.748913,42.035524 c -0.02117,-1.14591 -0.505354,-1.883039 -1.68275,-1.950243 -1.050396,-0.06006 -1.764771,0.878152 -1.764771,2.173816 0,2.112169 0.113771,4.227513 -0.269875,6.325394 -0.320146,1.767681 -1.010708,3.37476 -2.106083,4.787106 -1.502834,1.934369 -3.185584,2.27621 -5.34723,1.056481 C 69.093767,53.024464 67.310475,50.88081 65.84733,48.504851 62.709371,43.407918 60.5001,37.996924 60.693246,31.851977 c 0.0344,-1.093523 -0.238125,-2.097882 -1.539875,-2.231761 -1.262062,-0.130175 -1.825625,0.679979 -1.960562,1.820863 -0.06879,0.573616 -0.436563,0.800893 -0.883708,1.037431 -12.951354,6.853237 -19.761729,18.07501 -22.793854,32.006381 -0.523875,2.400564 -0.645584,4.846373 -1.063625,7.254875 -0.981605,-2.984765 -2.401888,-5.878777 -2.403475,-9.091613 -0.0021,-3.853391 0.46355,-7.630054 3.035829,-10.774627 -0.616479,-0.737129 -1.116542,-0.03201 -1.651,0.05953 -0.07144,-2.086505 -0.22225,-2.2352 -2.343944,-2.412471 -0.202671,-0.01693 -0.397139,-0.131763 -0.595577,-0.201084 -2.796117,-2.656152 -3.154098,-6.103143 -0.908315,-9.68375 2.328334,-3.712104 5.649648,-6.203685 9.769211,-7.652014 0.359833,-0.107156 0.711729,-0.242358 1.071562,-0.352954 0.28575,-0.111919 0.576792,-0.201877 0.886354,-0.21299 0.375709,-0.393435 0.957792,-0.07832 1.352021,-0.398991"
       fill="#c9a76f"
       id="path856"
       style="stroke-width:0.264583" />
    <path
       d="m 118.20572,82.901478 c -0.78581,0.236008 -0.93397,1.028965 -1.3282,1.582208 -2.58234,3.611563 -7.46125,4.983956 -11.09134,2.731029 -3.32581,-2.064543 -5.10646,-5.304366 -4.75191,-9.260945 0.30691,-3.452284 2.39712,-6.055784 5.5536,-7.305411 3.8391,-1.520295 9.77371,-0.107685 11.90096,4.664869 0.14023,0.316971 0.29104,0.628915 0.43921,0.942975 -0.0397,2.237052 -0.21432,4.459023 -0.72232,6.645275"
       fill="#ffd9b4"
       id="path890"
       style="stroke-width:0.264583" />
    <path
       d="m 35.957351,76.555182 c 0.616479,0.270404 0.489479,-0.325437 0.608541,-0.56171 1.254125,-2.468563 2.950105,-4.465902 5.659438,-5.402792 3.894666,-1.347787 7.821083,0.08308 9.847791,3.674798 1.119188,1.989138 2.188105,4.03225 1.61925,6.469856 -1.272645,5.452269 -5.92402,8.828352 -11.691937,7.071254 C 40.455267,87.336424 39.074142,86.634749 37.888809,85.540697 37.703601,85.37057 37.55808,84.921307 37.171788,85.307863 36.38333,82.44322 36.105517,79.508461 35.957351,76.555182"
       fill="#ffd9b4"
       id="path894"
       style="stroke-width:0.264583" />
    <path
       d="m 31.432976,51.933058 c 0.518583,-1.840178 1.608666,-0.21643 2.272771,-0.450057 -3.909748,5.433748 -4.145492,11.269927 -1.836209,17.347142 0.370417,0.973666 0.648229,1.886479 0.582084,2.909887 -1.119188,0.296069 -1.956329,-0.239183 -2.715154,-0.950648 -1.680634,-1.575593 -2.449513,-3.618706 -2.779184,-5.81951 -0.414866,-2.767542 -0.210608,-5.510213 0.746654,-8.163719 0.602986,-1.671108 1.356255,-3.237706 3.070225,-4.087548 0.314854,-0.156633 0.545042,-0.434975 0.658813,-0.785547"
       fill="#fefefe"
       id="path932"
       style="stroke-width:0.264583" />
    <path
       d="m 37.486642,32.084545 c -3.484562,1.584854 -6.680729,3.544359 -8.954822,6.742377 -1.064948,1.497277 -1.851819,3.112823 -2.029355,4.944269 -0.168275,1.734873 0.391319,3.285596 1.489869,4.654285 0.2032,0.253207 0.785019,0.352161 0.501121,0.894027 -1.663435,-0.315118 -3.221567,-0.892439 -4.533106,-1.98755 -1.896269,-1.582737 -2.293144,-3.424237 -1.220523,-5.651235 1.157552,-2.403475 3.017044,-4.203171 5.172339,-5.690394 2.912269,-2.010039 6.092561,-3.461543 9.558602,-4.253177 0.111125,0.110861 0.116417,0.226748 0.01588,0.347398"
       fill="#fefefe"
       id="path936"
       style="stroke-width:0.264583" />
    <path
       d="m 126.07708,81.313713 c -0.0132,1.102784 -0.13758,2.191015 -0.53446,3.225536 -0.39423,1.022879 -1.06892,1.820333 -2.0955,2.247635 -0.73025,0.303742 -1.63248,0.700617 -2.2569,0.238654 -0.50006,-0.370681 0.045,-1.207293 0.16934,-1.819539 0.50535,-2.497931 0.85196,-5.019675 0.97631,-7.559146 0.0529,-1.033462 0.50271,-1.177131 1.32292,-1.033727 0.94456,0.1651 1.59014,0.696912 1.91558,1.6002 0.36248,1.001183 0.50006,2.039673 0.50271,3.100387"
       fill="#fef8ea"
       id="path952"
       style="stroke-width:0.264583" />
    <path
       d="m 28.78529,81.340701 c 0.100278,-1.037167 0.127,-2.097352 0.527315,-3.091656 0.308504,-0.765704 0.791898,-1.352815 1.646767,-1.565275 0.941916,-0.234686 1.537229,-0.215636 1.60602,1.074737 0.153459,2.84824 0.513292,5.685631 1.230313,8.455025 0.246062,0.945092 -0.161396,1.024467 -0.896938,0.941652 -1.730375,-0.194469 -2.94296,-1.072621 -3.576637,-2.696104 -0.387879,-0.993775 -0.429948,-2.056606 -0.53684,-3.118379"
       fill="#fef8ea"
       id="path954"
       style="stroke-width:0.264583" />
    <path
       d="m 37.486642,32.084545 c -0.0053,-0.115887 -0.01058,-0.23151 -0.01588,-0.347133 0.206375,-0.23786 0.48948,-0.1905 0.756709,-0.202671 0.256646,-0.124089 0.328083,-0.01296 0.288396,0.233098 -0.343959,0.105569 -0.685271,0.211138 -1.02923,0.316706"
       fill="#f1ece4"
       id="path1004"
       style="stroke-width:0.264583" />
    <path
       d="m 40.664288,31.018804 c -0.328083,0.460639 -0.936625,0.232568 -1.328208,0.536839 -0.08996,-0.06138 -0.119063,-0.122237 -0.08731,-0.182033 0.02911,-0.05953 0.06085,-0.08943 0.08996,-0.08943 0.383646,-0.385763 0.870479,-0.237067 1.325562,-0.265377"
       fill="#cdbaa0"
       id="path1010"
       style="stroke-width:0.264583" />
    <path
       d="m 39.338726,31.284181 c 0,0.09049 -0.0026,0.180975 -0.0026,0.271462 -0.272521,0.07064 -0.545042,0.141552 -0.820208,0.212196 -0.09525,-0.07779 -0.193146,-0.155575 -0.288396,-0.233098 0.328083,-0.266964 0.722312,-0.248708 1.11125,-0.25056"
       fill="#ece3d3"
       id="path1016"
       style="stroke-width:0.264583" />
    <path
       d="m 62.860184,74.226584 c -0.04233,1.473729 -0.351896,2.824163 -1.5875,3.747294 -1.225021,0.914665 -2.595563,1.1557 -3.931709,0.334698 -1.613958,-0.9906 -2.447395,-2.51751 -2.323041,-4.421452 0.0979,-1.481402 0.735542,-2.794529 1.791229,-3.85789 1.500187,-1.509448 3.280833,-1.433248 4.669896,0.194205 0.98425,1.153583 1.314979,2.546085 1.381125,4.003145"
       fill="#6e4100"
       id="path1030"
       style="stroke-width:0.264583" />
    <path
       d="m 99.703412,74.286909 c 0.06086,1.389063 -0.30427,2.633134 -1.378479,3.560498 -1.039812,0.895086 -2.275416,1.232429 -3.569229,0.704321 -1.582208,-0.647171 -2.524125,-1.931458 -2.770187,-3.598069 -0.296334,-2.014273 0.455083,-3.741208 1.915583,-5.110427 1.394354,-1.30466 3.14325,-1.161521 4.405312,0.296334 1.026584,1.184275 1.452563,2.589477 1.397,4.147343"
       fill="#6e4100"
       id="path1032"
       style="stroke-width:0.264583" />
    <path
       d="m 77.253517,100.76059 c -2.259542,0.0124 -4.34975,-0.55245 -6.236229,-1.818483 -0.772583,-0.518054 -1.30175,-1.184275 -0.690563,-2.088092 0.600604,-0.891116 1.370542,-0.649552 2.182813,-0.159279 3.294062,1.988344 6.569604,1.989667 9.763125,-0.243417 0.743479,-0.520435 1.476375,-0.703791 2.079625,0.08864 0.605895,0.794014 0.24077,1.483254 -0.463021,2.039408 -1.947333,1.535903 -4.185708,2.177513 -6.63575,2.181223"
       fill="#6e4100"
       id="path1034"
       style="stroke-width:0.264583" />
    <path
       d="m 55.832851,44.399841 c 1.971145,-0.03757 3.058583,0.613304 3.865562,1.758421 0.436562,0.618331 0.4445,1.256771 -0.187854,1.743075 -0.568854,0.439737 -1.124479,0.303741 -1.643063,-0.190236 -1.312333,-1.254918 -2.76225,-1.137179 -3.804708,0.376502 -0.521229,0.757767 -1.066271,1.25148 -1.910292,0.631825 -0.830791,-0.610393 -0.550333,-1.413139 -0.04498,-2.0828 1.060979,-1.402027 2.489729,-2.161381 3.725334,-2.236787"
       fill="#6f4300"
       id="path1036"
       style="stroke-width:0.264583" />
    <path
       d="m 78.75635,75.485736 c -0.04233,0.582348 -0.468312,1.036373 -1.309687,1.05119 -0.870479,0.01535 -1.93675,-1.347788 -1.899709,-2.451894 0.02911,-0.833437 0.473605,-1.282964 1.322917,-1.29196 0.915458,-0.0095 1.912938,1.285081 1.886479,2.692664"
       fill="#704501"
       id="path1038"
       style="stroke-width:0.264583" />
  </g>
</svg>
